<?xml version="1.0" encoding="UTF-8" standalone="no"?>
<!-- Created with Inkscape (http://www.inkscape.org/) -->

<svg
   xmlns:svg="http://www.w3.org/2000/svg"
   xmlns="http://www.w3.org/2000/svg"
   xmlns:xlink="http://www.w3.org/1999/xlink"
   xmlns:sodipodi="http://sodipodi.sourceforge.net/DTD/sodipodi-0.dtd"
   xmlns:inkscape="http://www.inkscape.org/namespaces/inkscape"
   width="512"
   height="512"
   viewBox="0 0 135.46667 135.46667"
   version="1.1"
   id="svg5">
  <defs
     id="defs2">
    <linearGradient
       id="linearGradient121754">
      <stop
         style="stop-color:#31df03;stop-opacity:1"
         offset="0"
         id="stop121750" />
      <stop
         style="stop-color:#a8f612;stop-opacity:1"
         offset="1"
         id="stop121752" />
    </linearGradient>
    <linearGradient
       id="linearGradient112884">
      <stop
         style="stop-color:#0e4800;stop-opacity:1"
         offset="0"
         id="stop112880" />
      <stop
         style="stop-color:#2d8a06;stop-opacity:1"
         offset="1"
         id="stop112882" />
    </linearGradient>
    <linearGradient
       id="linearGradient110590">
      <stop
         style="stop-color:#000000;stop-opacity:0"
         offset="0"
         id="stop110586" />
      <stop
         style="stop-color:#ffffff;stop-opacity:0.49799198"
         offset="1"
         id="stop110588" />
    </linearGradient>
    <linearGradient
       id="linearGradient105795">
      <stop
         style="stop-color:#ffff50;stop-opacity:0"
         offset="0"
         id="stop105791" />
      <stop
         style="stop-color:#ffffff;stop-opacity:0.49799198"
         offset="1"
         id="stop105793" />
    </linearGradient>
    <linearGradient
       id="linearGradient86730">
      <stop
         style="stop-color:#ffffff;stop-opacity:1;"
         offset="0"
         id="stop86726" />
      <stop
         style="stop-color:#82ffff;stop-opacity:0"
         offset="1"
         id="stop86728" />
    </linearGradient>
    <linearGradient
       id="linearGradient75924">
      <stop
         style="stop-color:#000000;stop-opacity:0.94779116"
         offset="0"
         id="stop75920" />
      <stop
         style="stop-color:#013c3c;stop-opacity:0.29803923"
         offset="1"
         id="stop75922" />
    </linearGradient>
    <linearGradient
       id="linearGradient48959">
      <stop
         style="stop-color:#1195c0;stop-opacity:1"
         offset="0"
         id="stop48955" />
      <stop
         style="stop-color:#032936;stop-opacity:1"
         offset="1"
         id="stop48957" />
    </linearGradient>
    <linearGradient
       id="linearGradient12967">
      <stop
         style="stop-color:#f5860b;stop-opacity:1"
         offset="0"
         id="stop12963" />
      <stop
         style="stop-color:#fece01;stop-opacity:1"
         offset="1"
         id="stop12965" />
    </linearGradient>
    <linearGradient
       id="linearGradient114252">
      <stop
         style="stop-color:#01ffff;stop-opacity:1;"
         offset="0"
         id="stop114248" />
      <stop
         style="stop-color:#01ffff;stop-opacity:0;"
         offset="1"
         id="stop114250" />
    </linearGradient>
    <linearGradient
       id="linearGradient113322">
      <stop
         style="stop-color:#34fffa;stop-opacity:1;"
         offset="0"
         id="stop113318" />
      <stop
         style="stop-color:#34fffa;stop-opacity:0;"
         offset="1"
         id="stop113320" />
    </linearGradient>
    <linearGradient
       id="linearGradient63059">
      <stop
         style="stop-color:#f5860b;stop-opacity:1"
         offset="0"
         id="stop63055" />
      <stop
         style="stop-color:#f0c209;stop-opacity:1"
         offset="1"
         id="stop63057" />
    </linearGradient>
    <filter
       style="color-interpolation-filters:sRGB"
       id="filter114862"
       x="-0.0031621052"
       y="-0.0031476418"
       width="1.0063242"
       height="1.0062953">
      <feGaussianBlur
         stdDeviation="0.55497801"
         id="feGaussianBlur114864" />
    </filter>
    <filter
       style="color-interpolation-filters:sRGB"
       id="filter6024"
       x="-0.059747112"
       y="-0.060811702"
       width="1.1194942"
       height="1.1216234">
      <feGaussianBlur
         stdDeviation="1.1337268"
         id="feGaussianBlur6026" />
    </filter>
    <filter
       style="color-interpolation-filters:sRGB"
       id="filter84144"
       x="-0.10096941"
       y="-0.100229"
       width="1.2019388"
       height="1.2004645">
      <feGaussianBlur
         stdDeviation="0.7604168"
         id="feGaussianBlur84146" />
    </filter>
    <filter
       style="color-interpolation-filters:sRGB"
       id="filter87692"
       x="-0.0015092221"
       y="-0.24547828"
       width="1.0030184"
       height="1.4909566">
      <feGaussianBlur
         stdDeviation="0.076543676"
         id="feGaussianBlur87694" />
    </filter>
    <radialGradient
       xlink:href="#linearGradient113322"
       id="radialGradient109598"
       gradientUnits="userSpaceOnUse"
       gradientTransform="matrix(8.0502701,0,0,8.0502701,-1533.1269,912.46889)"
       cx="134.2001"
       cy="-145.23039"
       fx="134.2001"
       fy="-145.23039"
       r="5.3495221" />
    <radialGradient
       xlink:href="#linearGradient113322"
       id="radialGradient109600"
       gradientUnits="userSpaceOnUse"
       gradientTransform="matrix(8.0502701,0,0,8.0502701,-1559.5531,912.46889)"
       cx="134.2001"
       cy="-145.23039"
       fx="134.2001"
       fy="-145.23039"
       r="5.3495221" />
    <radialGradient
       xlink:href="#linearGradient114252"
       id="radialGradient109602"
       gradientUnits="userSpaceOnUse"
       gradientTransform="matrix(7.6557688,0,0,1.7159692,-1395.3583,-23.86045)"
       cx="121.43864"
       cy="-122.04922"
       fx="121.43864"
       fy="-122.04922"
       r="23.866806" />
    <linearGradient
       xlink:href="#linearGradient105795"
       id="linearGradient109604"
       gradientUnits="userSpaceOnUse"
       gradientTransform="translate(-181.79834,8.5755271e-4)"
       x1="-424.69128"
       y1="80.432289"
       x2="-424.69128"
       y2="169.1783" />
    <linearGradient
       xlink:href="#linearGradient110590"
       id="linearGradient109606"
       gradientUnits="userSpaceOnUse"
       gradientTransform="translate(-182.03396,8.6107271e-4)"
       x1="-424.69128"
       y1="80.432289"
       x2="-424.69128"
       y2="169.1783" />
    <linearGradient
       xlink:href="#linearGradient63059"
       id="linearGradient109608"
       gradientUnits="userSpaceOnUse"
       gradientTransform="matrix(5.2696121,0,0,5.2696121,-1856.3032,639.70229)"
       x1="270.91376"
       y1="-159.96452"
       x2="270.91376"
       y2="-174.12389" />
    <linearGradient
       xlink:href="#linearGradient12967"
       id="linearGradient109610"
       gradientUnits="userSpaceOnUse"
       gradientTransform="rotate(-90,-121.66101,221.49842)"
       x1="-137.52164"
       y1="-167.10789"
       x2="-2.0549774"
       y2="-167.10789" />
    <linearGradient
       xlink:href="#linearGradient86730"
       id="linearGradient109612"
       gradientUnits="userSpaceOnUse"
       x1="-317.19952"
       y1="218.83279"
       x2="-267.91589"
       y2="218.83279" />
    <linearGradient
       xlink:href="#linearGradient75924"
       id="linearGradient109614"
       gradientUnits="userSpaceOnUse"
       x1="-374.57663"
       y1="199.65962"
       x2="-374.57663"
       y2="229.46385"
       gradientTransform="translate(-182.03396,8.6107271e-4)" />
    <linearGradient
       xlink:href="#linearGradient48959"
       id="linearGradient109616"
       gradientUnits="userSpaceOnUse"
       gradientTransform="matrix(0.90876128,0,0,0.90876128,128.66004,-664.41715)"
       x1="-395.96716"
       y1="169.62552"
       x2="-260.50101"
       y2="169.62552" />
    <filter
       style="color-interpolation-filters:sRGB"
       id="filter7189"
       x="-0.25562131"
       y="-0.25562131"
       width="1.5112426"
       height="1.5112426">
      <feGaussianBlur
         stdDeviation="4.0243692"
         id="feGaussianBlur7191" />
    </filter>
    <filter
       style="color-interpolation-filters:sRGB"
       id="filter10543"
       x="-0.27081877"
       y="-0.27344867"
       width="1.5416375"
       height="1.5468973">
      <feGaussianBlur
         stdDeviation="6.7142687"
         id="feGaussianBlur10545" />
    </filter>
    <filter
       style="color-interpolation-filters:sRGB"
       id="filter9875"
       x="-0.16492219"
       y="-0.16169224"
       width="1.3298444"
       height="1.3233845">
      <feGaussianBlur
         stdDeviation="4.7837903"
         id="feGaussianBlur9873" />
    </filter>
    <linearGradient
       xlink:href="#linearGradient112884"
       id="linearGradient112886"
       x1="-701.82141"
       y1="261.10443"
       x2="-701.82141"
       y2="227.05429"
       gradientUnits="userSpaceOnUse"
       gradientTransform="matrix(0.70710679,-0.70710679,0.72361886,0.72361886,-105.63814,-476.87425)" />
    <linearGradient
       xlink:href="#linearGradient121754"
       id="linearGradient121756"
       x1="-664.7431"
       y1="276.04568"
       x2="-664.7431"
       y2="264.37714"
       gradientUnits="userSpaceOnUse"
       gradientTransform="translate(-0.23386084,-0.07015825)" />
    <linearGradient
       inkscape:collect="always"
       xlink:href="#linearGradient121754"
       id="linearGradient2365"
       gradientUnits="userSpaceOnUse"
       gradientTransform="translate(-0.23386084,-0.07015825)"
       x1="-664.7431"
       y1="276.04568"
       x2="-664.7431"
       y2="264.37714" />
    <linearGradient
       inkscape:collect="always"
       xlink:href="#linearGradient121754"
       id="linearGradient2367"
       gradientUnits="userSpaceOnUse"
       gradientTransform="translate(-0.23386084,-0.07015825)"
       x1="-664.7431"
       y1="276.04568"
       x2="-664.7431"
       y2="264.37714" />
    <linearGradient
       inkscape:collect="always"
       xlink:href="#linearGradient121754"
       id="linearGradient2369"
       gradientUnits="userSpaceOnUse"
       gradientTransform="translate(-0.23386084,-0.07015825)"
       x1="-664.7431"
       y1="276.04568"
       x2="-664.7431"
       y2="264.37714" />
    <linearGradient
       inkscape:collect="always"
       xlink:href="#linearGradient121754"
       id="linearGradient2371"
       gradientUnits="userSpaceOnUse"
       gradientTransform="translate(-0.23386084,-0.07015825)"
       x1="-664.7431"
       y1="276.04568"
       x2="-664.7431"
       y2="264.37714" />
  </defs>
  <g
     id="layer1"
     transform="translate(578.00144,-101.89282)">
    <rect
       style="opacity:1;fill:url(#linearGradient109616);fill-opacity:1;stroke-width:8.02889;stroke-linecap:round;stroke-linejoin:round;paint-order:stroke markers fill"
       id="rect109528"
       width="123.10638"
       height="123.10686"
       x="-231.1796"
       y="-571.82141"
       transform="rotate(-90)"
       ry="0" />
    <path
       style="opacity:1;fill:#64b4ff;fill-opacity:1;stroke:#00d4ff;stroke-width:4;stroke-linecap:round;stroke-linejoin:round;stroke-miterlimit:4;stroke-dasharray:none;stroke-opacity:1;filter:url(#filter84144)"
       d="m -537.56855,218.05665 -19.04735,-38.16012 -18.83421,38.16012 z"
       id="path109530" />
    <path
       id="path109532"
       style="opacity:0.333333;fill:#000005;fill-opacity:1;stroke:none;stroke-width:3.65739;stroke-linecap:round;stroke-linejoin:round;stroke-miterlimit:4;stroke-dasharray:none;stroke-opacity:1;paint-order:stroke markers fill"
       d="m -466.30772,103.51547 1e-5,27.10325 h -82.48386 -0.52916 v 0.52917 h 0.52916 83.01302 v -27.63241 z m 21.50876,4.82399 v 38.87153 h -13.61208 v 0.52917 h 14.14125 v -39.4007 z m -110.01239,10.05676 -1e-5,62.51349 h -18.19011 v 0.52917 h 18.71928 v -63.04266 z m 88.50364,18.15237 -1e-5,78.69081 -82.48385,1e-5 -0.52917,-1e-5 10e-6,0.52916 h 0.52916 83.01302 v -79.21997 z m 21.50875,16.86616 1e-5,36.65823 h -13.61209 -0.52917 v 0.52917 h 0.52917 14.14125 v -37.1874 z m -110.0124,33.31579 1e-5,45.37604 h -18.19011 v 0.52917 h 18.71927 v -45.90521 z m 110.19948,8.26823 v 37.96771 h -15.0151 v 0.52917 h 15.54427 v -38.49688 z m -45.24375,26.72292 v 0.52917 10.71562 h -58.93594 v 0.52917 h 59.46511 v -11.24479 l -10e-6,-0.52916 z m 23.54791,0 v 0.52917 10.71562 h -17.13176 v 0.52917 h 17.66092 l 1e-5,-11.24478 v -0.52917 z" />
    <path
       id="path109534"
       style="opacity:0.333333;fill:#000000;fill-opacity:0.55;stroke:none;stroke-width:3.65739;stroke-linecap:round;stroke-linejoin:round;stroke-miterlimit:4;stroke-dasharray:none;stroke-opacity:1;paint-order:stroke markers fill"
       d="m -549.32058,102.9863 v 27.63243 h 83.01302 l -10e-6,-27.63243 z m 90.38053,4.824 v 39.4007 h 14.14125 l -10e-6,-39.4007 z m -114.59044,10.05675 10e-6,63.04266 h 18.71926 v -63.04265 z m 24.20991,18.15238 v 79.21997 h 83.01302 l -10e-6,-79.21997 z m 90.38053,16.86616 v 37.18739 h 14.14124 l 10e-6,-37.1874 z m -114.59044,33.31579 10e-6,45.90521 h 18.71926 l 1e-5,-45.90521 z m 113.37449,8.26823 v 38.49687 h 15.54427 v -38.49686 z m -89.16458,27.25208 v 11.24479 h 59.46511 v -11.24479 z m 65.35207,1e-5 10e-6,11.24478 h 17.66094 v -11.24479 z" />
    <path
       style="fill:url(#linearGradient109614);fill-opacity:1;stroke:#ffffff;stroke-width:2.3;stroke-linecap:butt;stroke-linejoin:miter;stroke-miterlimit:4;stroke-dasharray:none;stroke-opacity:1"
       d="m -537.56854,218.05665 -19.04735,-38.16012 -18.83421,38.16013 z"
       id="path109536" />
    <rect
       style="opacity:1;fill:url(#linearGradient109612);fill-opacity:1;stroke:none;stroke-width:9.39245;stroke-linecap:round;stroke-linejoin:round;stroke-miterlimit:4;stroke-dasharray:none;stroke-opacity:1;paint-order:stroke markers fill;filter:url(#filter87692)"
       id="rect109538"
       width="121.72153"
       height="0.74835467"
       x="-389.24707"
       y="218.45862"
       transform="matrix(1,0,0,1.6787261,-182.03397,-148.53258)" />
    <path
       id="path109540"
       style="opacity:1;fill:#d33f05;fill-opacity:1;stroke:none;stroke-width:8.99999;stroke-linecap:round;stroke-linejoin:round;stroke-miterlimit:4;stroke-dasharray:none;stroke-dashoffset:0;stroke-opacity:1;paint-order:stroke markers fill"
       d="m -578.00115,101.89305 1e-5,135.46666 135.46614,1e-5 V 101.89305 Z m 31.65235,6.3226 78.79207,1e-5 c 10.36076,0 18.69914,8.33832 18.69914,18.69912 v 85.42321 c 0,10.36081 -8.33838,18.69911 -18.69914,18.69911 l -85.42268,1e-5 c -10.36074,0 -18.69912,-8.33832 -18.69912,-18.69912 v -78.79261 l 1.68826,1e-5 c 13.09569,-1e-5 23.6415,-10.5458 23.64147,-23.64146 z" />
    <path
       id="path109542"
       style="fill:#fff481;fill-opacity:1;stroke:none;stroke-width:8.99999;stroke-linecap:round;stroke-linejoin:round;stroke-miterlimit:4;stroke-dasharray:none;stroke-dashoffset:0;stroke-opacity:1;paint-order:markers fill stroke"
       d="m -578.00115,101.89305 1e-5,135.46666 135.46614,1e-5 V 101.89305 Z m 29.25247,3.92276 h 81.19195 c 11.68913,0 21.09899,9.40978 21.09899,21.09897 v 85.42321 c 0,11.68918 -9.40986,21.09897 -21.09899,21.09897 h -85.42268 c -11.68914,0 -21.09897,-9.40979 -21.09897,-21.09897 v -81.19246 l 4.0881,1e-5 c 11.76733,-1e-5 21.24166,-9.47431 21.2416,-21.2416 z" />
    <path
       id="path109544"
       style="fill:url(#linearGradient109610);fill-opacity:1;stroke:none;stroke-width:8.99999;stroke-linecap:round;stroke-linejoin:round;stroke-miterlimit:4;stroke-dasharray:none;stroke-dashoffset:0;stroke-opacity:1;paint-order:stroke markers fill"
       d="m -578.00115,101.89305 v 28.17503 l 1e-5,87.04998 v 20.24165 l 135.46614,1e-5 V 101.89305 h -20.24166 l -86.97712,-1e-5 z m 28.25253,2.92282 h 82.19189 c 12.24262,0 22.09893,9.85624 22.09893,22.09891 v 85.42321 c -10e-6,12.24267 -9.85631,22.09891 -22.09893,22.09891 h -85.42268 c -12.24262,0 -22.09891,-9.85624 -22.0989,-22.09891 l -10e-6,-82.1924 h 5.08804 c 11.21384,0 20.24169,-9.02784 20.24166,-20.24166 z" />
    <path
       id="path109546"
       style="opacity:0.266026;mix-blend-mode:normal;fill:#000000;fill-opacity:1;stroke:none;stroke-width:13.7089;stroke-linecap:round;stroke-linejoin:round;stroke-miterlimit:4;stroke-dasharray:none;stroke-dashoffset:0;stroke-opacity:1;filter:url(#filter114862)"
       d="m 1273.5215,92.960938 c -4.0928,0 -8.1863,1.569026 -11.3223,4.705078 L 1066.6484,293.2168 c -6.2721,6.2721 -6.2721,16.37246 0,22.64453 l 195.5508,195.55273 c 6.272,6.27207 16.3724,6.27207 22.6446,0 l 195.5507,-195.55273 c 1.1295,-1.12951 2.0488,-2.38567 2.7715,-3.71875 V 296.9375 c -0.7227,-1.33309 -1.642,-2.59119 -2.7715,-3.7207 L 1284.8438,97.666016 c -3.1362,-3.136052 -7.2297,-4.705078 -11.3223,-4.705078 z m 0,13.218752 c 0.6485,0 1.2961,0.24915 1.793,0.74609 l 195.8222,195.81836 c 0.9939,0.99385 0.9939,2.596 0,3.58984 L 1275.3145,502.1543 c -0.9939,0.99384 -2.5941,0.99384 -3.5879,0 L 1075.9082,306.33398 c -0.9939,-0.99384 -0.9939,-2.59599 0,-3.58984 l 195.8184,-195.81836 c 0.4968,-0.49694 1.1463,-0.74609 1.7949,-0.74609 z"
       transform="matrix(0.26458333,0,0,0.26458333,-834.95617,80.434173)" />
    <rect
       style="fill:url(#linearGradient109608);fill-opacity:1;stroke:none;stroke-width:5.2696;stroke-linecap:round;stroke-linejoin:round;stroke-miterlimit:4;stroke-dasharray:none;stroke-dashoffset:0;stroke-opacity:1"
       id="rect109548"
       width="74.614243"
       height="74.614243"
       x="-503.3002"
       y="-277.862"
       ry="0.67125392"
       transform="rotate(-45)" />
    <rect
       style="opacity:1;fill:#ffffff;fill-opacity:0;stroke-width:14.8714;stroke-linecap:round;stroke-linejoin:round;paint-order:stroke markers fill"
       id="rect109556"
       width="121.68119"
       height="1.0983825"
       x="-572.34576"
       y="218.68881" />
    <path
       id="path109558"
       style="opacity:0.333333;fill:url(#linearGradient109606);fill-opacity:1;stroke:none;stroke-width:4.36179;stroke-linecap:round;stroke-linejoin:round;stroke-miterlimit:4;stroke-dasharray:none;stroke-opacity:1;paint-order:stroke markers fill"
       d="m -578.00102,101.89283 v 55.15219 a 98.685018,44.372506 0 0 0 67.73284,12.13414 98.685018,44.372506 0 0 0 67.73332,-12.13414 v -55.15219 z" />
    <path
       id="path109560"
       style="fill:#fee10b;fill-opacity:1;stroke:none;stroke-width:6.67382;stroke-linecap:round;stroke-linejoin:round;stroke-miterlimit:4;stroke-dasharray:none;stroke-dashoffset:0;stroke-opacity:1"
       d="m -500.43777,104.19399 -1.5689,1.5689 1.59266,1.59369 -53.6453,53.6453 1.5689,1.5689 53.05155,-53.05101 h 0.004 a 0.81028645,0.81028645 0 0 1 0.59168,-0.25685 0.81028645,0.81028645 0 0 1 0.59119,0.25685 h 0.003 l 52.29137,52.29085 1.5689,-1.5689 -52.88565,-52.88513 0.83301,-0.83303 -1.56889,-1.56889 -0.83302,0.83302 z" />
    <path
       id="path109562"
       style="fill:#000000;fill-opacity:1;stroke:none;stroke-width:3.62714;stroke-linecap:round;stroke-linejoin:round;stroke-miterlimit:4;stroke-dasharray:none;stroke-dashoffset:0;stroke-opacity:1"
       d="m -499.60483,103.42888 c -1.08288,0 -2.1659,0.41501 -2.99564,1.24477 l -51.73968,51.73967 c -1.65951,1.6595 -1.6595,4.33181 -10e-6,5.99129 l 51.73969,51.73969 c 1.65946,1.65949 4.33179,1.65949 5.99128,0 l 51.73969,-51.73969 c 1.65948,-1.65948 1.65948,-4.33179 0,-5.99129 l -51.73969,-51.73967 c -0.82975,-0.82976 -1.91279,-1.24477 -2.99564,-1.24477 z m -1e-5,3.49711 c 0.17158,-1e-5 0.34287,0.066 0.47434,0.19755 l 51.81112,51.81057 c 0.26296,0.26296 0.26296,0.68676 0,0.94972 l -51.81112,51.81058 c -0.26296,0.26296 -0.68624,0.26296 -0.94919,0 l -51.81057,-51.81057 c -0.26296,-0.26296 -0.26295,-0.68677 10e-6,-0.94973 l 51.81056,-51.81057 c 0.13146,-0.13149 0.30323,-0.19759 0.47485,-0.19755 z" />
    <path
       id="path109564"
       style="opacity:0.333333;fill:url(#linearGradient109604);fill-opacity:1;stroke:none;stroke-width:4.36179;stroke-linecap:round;stroke-linejoin:round;stroke-miterlimit:4;stroke-dasharray:none;stroke-opacity:1;paint-order:stroke markers fill"
       d="m -499.36924,106.64861 -52.76009,52.76009 6.81147,6.81147 a 98.685018,44.372506 0 0 0 35.28518,2.95899 98.685018,44.372506 0 0 0 62.95223,-10.24175 z" />
    <path
       id="path109566"
       style="opacity:0.333333;fill:#ffe600;fill-opacity:1;stroke:none;stroke-width:4.36179;stroke-linecap:round;stroke-linejoin:round;stroke-miterlimit:4;stroke-dasharray:none;stroke-opacity:1;paint-order:stroke markers fill"
       d="m -499.36924,106.64861 -52.76009,52.76009 6.81147,6.81147 a 98.685018,44.372506 0 0 0 35.28518,2.95899 98.685018,44.372506 0 0 0 62.95223,-10.24175 z" />
    <rect
       style="fill:#fee10b;fill-opacity:1;stroke:none;stroke-width:0.00121588;stroke-linecap:round;stroke-linejoin:round;stroke-miterlimit:4;stroke-dasharray:none;stroke-dashoffset:0;stroke-opacity:1"
       id="rect109568"
       width="53.325024"
       height="15.968778"
       x="-493.36453"
       y="-239.84158"
       ry="0"
       transform="rotate(-45)" />
    <rect
       style="fill:#000000;fill-opacity:1;stroke:none;stroke-width:0.00121588;stroke-linecap:round;stroke-linejoin:round;stroke-miterlimit:4;stroke-dasharray:none;stroke-dashoffset:0;stroke-opacity:1"
       id="rect109570"
       width="53.325024"
       height="15.968778"
       x="-492.31485"
       y="-241.27751"
       ry="0"
       transform="rotate(-45)" />
    <rect
       style="fill:url(#radialGradient109602);fill-opacity:1;stroke:none;stroke-width:4.16145;stroke-linecap:round;stroke-linejoin:round;stroke-miterlimit:4;stroke-dasharray:none;stroke-dashoffset:0;stroke-opacity:1"
       id="rect109572"
       width="48.148335"
       height="10.792"
       x="-489.72644"
       y="-238.68919"
       ry="0"
       transform="rotate(-45)" />
    <rect
       style="fill:#fee10b;fill-opacity:1;stroke:none;stroke-width:0.000665362;stroke-linecap:round;stroke-linejoin:round;stroke-miterlimit:4;stroke-dasharray:none;stroke-dashoffset:0;stroke-opacity:1"
       id="rect109574"
       width="15.968778"
       height="15.968778"
       x="-487.97507"
       y="-263.67435"
       ry="0"
       transform="rotate(-45)" />
    <rect
       style="fill:#000000;fill-opacity:1;stroke:none;stroke-width:0.000665362;stroke-linecap:round;stroke-linejoin:round;stroke-miterlimit:4;stroke-dasharray:none;stroke-dashoffset:0;stroke-opacity:1"
       id="rect109576"
       width="15.968778"
       height="15.968778"
       x="-487.19049"
       y="-264.66013"
       ry="0"
       transform="rotate(-45)" />
    <rect
       style="fill:url(#radialGradient109600);fill-opacity:1;stroke:none;stroke-width:1.97017;stroke-linecap:round;stroke-linejoin:round;stroke-miterlimit:4;stroke-dasharray:none;stroke-dashoffset:0;stroke-opacity:1"
       id="rect109578"
       width="10.792"
       height="10.792"
       x="-484.60214"
       y="-262.07175"
       ry="0"
       transform="rotate(-45)" />
    <rect
       style="fill:#fee10b;fill-opacity:1;stroke:none;stroke-width:0.000665362;stroke-linecap:round;stroke-linejoin:round;stroke-miterlimit:4;stroke-dasharray:none;stroke-dashoffset:0;stroke-opacity:1"
       id="rect109580"
       width="15.968778"
       height="15.968778"
       x="-461.51944"
       y="-263.61349"
       ry="0"
       transform="rotate(-45)" />
    <rect
       style="fill:#000000;fill-opacity:1;stroke:none;stroke-width:0.000665362;stroke-linecap:round;stroke-linejoin:round;stroke-miterlimit:4;stroke-dasharray:none;stroke-dashoffset:0;stroke-opacity:1"
       id="rect109582"
       width="15.968778"
       height="15.968778"
       x="-460.76437"
       y="-264.66013"
       ry="0"
       transform="rotate(-45)" />
    <rect
       style="fill:url(#radialGradient109598);fill-opacity:1;stroke:none;stroke-width:1.97017;stroke-linecap:round;stroke-linejoin:round;stroke-miterlimit:4;stroke-dasharray:none;stroke-dashoffset:0;stroke-opacity:1"
       id="rect109584"
       width="10.792"
       height="10.792"
       x="-458.17596"
       y="-262.07175"
       ry="0"
       transform="rotate(-45)" />
    <circle
       style="opacity:0.602564;mix-blend-mode:normal;fill:#ffff00;fill-opacity:1;stroke-width:8.83499;stroke-linecap:round;stroke-linejoin:round;paint-order:stroke markers fill;filter:url(#filter7189)"
       id="path7107"
       cx="-382.23706"
       cy="111.1563"
       r="18.892178"
       transform="matrix(0.59656766,0,0,0.59656766,-334.47877,50.399968)" />
    <path
       id="circle7481"
       style="opacity:0.474359;mix-blend-mode:normal;fill:#ffffbe;fill-opacity:1;stroke-width:14.9147;stroke-linecap:round;stroke-linejoin:round;paint-order:stroke markers fill;filter:url(#filter10543)"
       d="m 477.55078,18.132812 a 31.892684,31.892684 0 0 0 -27.60937,16.019532 c 22.0552,4.25291 39.48443,21.150536 44.51953,42.910156 A 31.892684,31.892684 0 0 0 509.44336,50.025391 31.892684,31.892684 0 0 0 477.55078,18.132812 Z"
       transform="matrix(0.26458333,0,0,0.26458333,-579.5409,99.679823)" />
    <g
       aria-label="R"
       id="g109588"
       style="font-size:66.0307px;line-height:1.25;font-family:Pusab;-inkscape-font-specification:Pusab;mix-blend-mode:normal;fill:#ffffff;stroke-width:1.65077;filter:url(#filter6024)"
       transform="matrix(0.32818147,0,0,0.32818147,-418.42005,68.575978)">
      <path
         d="m -445.92969,123.19727 c -3.75167,0 -7.44178,0.33374 -11.0039,1.00585 -2.2596,0.43734 -3.81453,1.38431 -4.72461,3.03907 -1.01213,1.86854 -1.36328,8.08626 -1.36328,18.59375 0,10.89349 0.53446,17.33169 1.98632,19.12109 1.04138,1.35191 2.6469,2.15312 4.70704,2.50977 1.04874,0.20845 2.77316,0.34618 5.01562,0.41211 1.78429,0.0661 3.00989,0.17546 3.45312,-0.26758 l -0.57617,0.26562 c 4.33056,-0.33832 7.38372,-1.53908 8.58789,-3.8457 0.69574,-1.24489 0.97301,-3.10629 0.90625,-5.4043 3e-5,-0.9792 -0.028,-1.43497 -0.0488,-2.00781 0.33886,0.67532 0.6714,1.33378 1.1289,2.44141 l 1.77539,4.53515 c 1.15955,3.01484 3.91714,4.42445 7.94141,4.28321 2.64675,-0.0661 4.58297,-0.19803 5.74414,-0.33399 l 0.0195,-0.002 c -0.003,3.7e-4 -0.0125,-3.7e-4 -0.0156,0 3.12092,-0.30602 4.91601,-2.04152 4.91601,-5.00195 0,-0.60349 -0.0782,-1.336 -0.29101,-2.19141 -0.89984,-4.03943 -2.97427,-7.84423 -6.03516,-11.47266 3.50038,-2.28504 5.33594,-5.86317 5.33594,-10.76757 0,-9.98458 -7.46924,-14.91211 -21.51563,-14.91211 z m 6.08203,40.83398 c -0.002,0.004 -0.002,0.01 -0.004,0.0137 l 0.0156,-0.0273 c -0.003,0.005 -0.009,0.008 -0.0117,0.0137 z m -21.1875,0.92578 c -0.004,-0.005 -0.0117,-0.007 -0.0156,-0.0117 l 0.0195,0.0234 c -0.002,-0.002 -0.002,-0.009 -0.004,-0.0117 z m 27.25196,-29.5 h 0.006 l 1.05859,0.0664 c 1.45632,0.0971 2.11914,0.79317 2.11914,2.52148 0,1.6263 -0.98388,2.54119 -3.76562,2.71875 -2.82193,0.17278 -4.01402,-0.82259 -4.11329,-2.75781 -0.0535,-1.23154 0.30013,-1.86136 1.15821,-2.22266 l 0.0137,-0.006 0.0137,-0.006 c 0.6684,-0.30848 1.78545,-0.44217 3.50977,-0.31445 z"
         id="path109586"
         style="fill:#ffffff" />
    </g>
    <g
       aria-label="R"
       id="g109596"
       style="font-size:66.0307px;line-height:1.25;font-family:Pusab;-inkscape-font-specification:Pusab;fill:#000000;stroke-width:1.65077"
       transform="matrix(0.32818147,0,0,0.32818147,-418.42005,68.575978)">
      <path
         d="m -439.85523,158.64558 c 0,-1.5187 0,-2.50916 -0.066,-2.97138 -0.066,-0.99046 0.066,-1.5187 0.33015,-1.5187 0.46222,0 1.32061,1.5187 2.5752,4.55612 l 1.78283,4.55611 c 0.99046,2.5752 3.30153,3.82978 7.06528,3.69772 2.64123,-0.066 4.55612,-0.19809 5.67864,-0.33015 2.70726,-0.26412 4.09391,-1.65077 4.09391,-4.0939 0,-0.52825 -0.066,-1.18856 -0.26413,-1.98092 -0.92443,-4.15994 -3.03741,-8.12178 -6.40498,-11.88553 3.76375,-2.04695 5.67865,-5.54658 5.67865,-10.56491 0,-9.31033 -6.8672,-13.99851 -20.60158,-13.99851 h -5.94277 c -3.69772,0 -7.3294,0.33015 -10.82903,0.99046 -2.04695,0.39618 -3.36757,1.25458 -4.0939,2.5752 -0.8584,1.58473 -1.25459,7.65956 -1.25459,18.15844 0,10.89506 0.59428,17.10195 1.78283,18.55463 0.8584,1.12252 2.24504,1.84886 4.15993,2.17901 0.99047,0.19809 2.64123,0.33015 4.88628,0.39618 1.78283,0.066 2.70726,0.066 2.77329,0 4.22596,-0.33015 6.86719,-1.45267 7.85765,-3.36756 0.59428,-1.05649 0.8584,-2.70726 0.79237,-4.95231 z m 10.16873,-20.60157 c 0,2.24504 -1.51871,3.43359 -4.62215,3.63168 -3.23551,0.1981 -4.95231,-1.05649 -5.08437,-3.63168 -0.066,-1.51871 0.46222,-2.5752 1.7168,-3.10345 0.8584,-0.39618 2.17901,-0.52824 3.96184,-0.39618 l 1.05649,0.066 c 1.98093,0.13206 2.97139,1.25458 2.97139,3.4336 z"
         id="path109594"
         style="fill:#000000" />
    </g>
    <path
       id="circle9871"
       style="opacity:0.342949;mix-blend-mode:normal;fill:#fff056;fill-opacity:1;stroke-width:18.2537;stroke-linecap:round;stroke-linejoin:round;paint-order:stroke markers fill;filter:url(#filter9875)"
       d="m 495.93555,442.05469 c -0.3055,29.93557 -23.48325,54.18005 -52.96875,56.18164 a 39.032499,39.032499 0 0 0 30.58203,14.82422 39.032499,39.032499 0 0 0 39.0332,-39.03321 39.032499,39.032499 0 0 0 -16.64648,-31.97265 z"
       transform="matrix(0.26458333,0,0,0.26458333,-582.04003,97.180691)" />
    <path
       id="rect112768"
       style="fill:url(#linearGradient112886);fill-opacity:1;stroke:none;stroke-width:4.04643;stroke-linecap:round;stroke-linejoin:round;stroke-miterlimit:4;stroke-dasharray:none;stroke-opacity:1;paint-order:stroke markers fill"
       d="m -491.27065,237.35982 h 48.73586 v -48.73587 z" />
    <path
       id="rect120422"
       style="fill:#0e4800;fill-opacity:1;stroke:none;stroke-width:3.99838;stroke-linecap:round;stroke-linejoin:round;stroke-miterlimit:4;stroke-dasharray:none;stroke-opacity:1;paint-order:stroke markers fill"
       d="m -494.82534,237.35982 h 3.55469 l 48.73586,-48.73587 v -3.55468 z" />
    <g
       id="g138964"
       style="fill:#000000"
       transform="rotate(-45,-635.52075,-26.249667)">
      <g
         aria-label="lite"
         id="g138952"
         style="font-size:20.5436px;line-height:1.25;font-family:Pusab;-inkscape-font-specification:Pusab;stroke-width:0.513591">
        <path
           d="m -700.97656,263.45703 c -1.93947,0 -3.18713,0.0643 -3.77539,0.31641 -0.70892,0.31192 -1.17432,0.92537 -1.44141,1.77539 -0.20627,0.68752 -0.29536,1.44792 -0.27344,2.28125 0.0247,0.90012 0.0426,1.49315 0.0527,1.7832 0.003,0.0967 0.006,0.16455 0.008,0.20117 9e-5,0.002 0.005,0.0221 0.004,0.0215 0.002,3.10002 0.12622,5.01099 0.6875,5.57226 l 0.0156,0.0176 0.0176,0.0137 c 0.55771,0.47805 1.38234,0.73173 2.35742,0.82032 0.29281,0.0225 1.02964,0.043 2.22461,0.043 1.46789,0 2.7547,-0.12621 3.82617,-0.38867 0.56509,-0.1465 0.99358,-0.29223 1.23047,-0.42383 l 0.0176,-0.01 0.0176,-0.0117 c 0.52793,-0.3416 0.80664,-0.83597 0.80664,-1.4707 0,-1.09614 -0.37238,-2.01563 -1.37891,-2.01563 -0.1892,0 -0.48585,0.0206 -0.91406,0.041 -0.43504,0.0207 -0.69723,0.041 -0.8125,0.041 h -0.01 -0.0117 c -0.34413,0.0118 -0.46771,-0.008 -0.52149,-0.0137 -0.045,-0.39229 -0.0898,-0.78095 -0.0898,-0.88672 v -0.6582 c 0,-1.068 10e-4,-2.1088 0.0215,-3.10938 v -0.006 -1.31054 c -0.0237,-1.56909 -0.65461,-2.62305 -2.05859,-2.62305 z"
           id="path138944" />
        <path
           d="m -691.77344,263.43555 c -1.28756,0 -2.36617,0.2543 -2.98242,0.84375 l -0.006,0.004 -0.004,0.006 c -0.53477,0.53478 -0.7899,1.34734 -0.8125,2.3418 v 0.0195 0.0195 c 0.0407,0.93595 0.0625,1.91472 0.0625,2.9336 v 2.73828 0.008 c 0.0413,1.59129 0.13003,2.68701 0.5625,3.07617 0.65754,0.60492 1.66421,0.85523 2.85937,0.87695 h 0.006 0.55469 0.0156 c 0.89517,-0.0426 1.6231,-0.16019 2.0918,-0.5039 l 0.008,-0.008 0.008,-0.006 c 0.58409,-0.46113 0.82255,-1.22282 0.84571,-2.12891 l 0.082,-8.04883 c 0.0282,-1.38451 -0.86121,-2.12479 -2.29492,-2.15039 -0.55293,-0.0202 -0.88986,-0.0215 -0.9961,-0.0215 z"
           id="path138946" />
        <path
           d="m -680.54492,263.45703 c -2.0739,-0.0415 -4.06491,0.0203 -5.95899,0.16602 -1.39079,0.1199 -2.33593,0.72759 -2.33593,1.99414 0,1.29535 0.5183,2.24081 1.70898,2.13867 l 0.88867,-0.0605 0.0156,-0.002 c 0.0232,-0.0109 0.0384,-0.031 0.0371,-0.004 -0.12335,3.16597 -0.16788,5.17958 -0.10352,6.0586 0.0428,0.70618 0.14362,1.3194 0.48438,1.66015 0.62849,0.6285 1.64479,0.87289 2.8789,0.89453 h 0.004 0.5332 0.0156 c 0.8751,-0.0427 1.60133,-0.16578 2.07031,-0.48828 0.66852,-0.44568 0.90431,-1.23663 0.9043,-2.16015 l 0.041,-5.5918 c 0,-0.28149 0.0277,-0.29282 0.24219,-0.28516 h 0.0117 0.01 c 0.11444,0 0.601,0.041 0.86328,0.041 0.42176,0 0.80349,-0.0434 1.0879,-0.18555 l 0.006,-0.004 0.006,-0.002 c 0.72413,-0.3793 0.95704,-1.21752 0.95704,-2.19531 0,-0.68828 -0.32892,-1.26232 -0.98438,-1.50586 -0.77712,-0.30435 -1.92598,-0.44795 -3.38281,-0.46875 z"
           id="path138948" />
        <path
           d="m -671.12695,263.43555 c -2.68116,0 -4.4774,0.30451 -5.00977,1.30664 -0.31926,0.6095 -0.41797,2.34693 -0.41797,5.20898 v 1.43945 c 0,1.9686 0.15043,3.33453 0.625,3.92774 0.60714,0.75893 2.38099,0.98437 5.0293,0.98437 1.62472,0 2.95944,-0.1036 4.01172,-0.29687 1.27592,-0.23629 2.15429,-0.87446 2.15429,-2.00781 0,-1.20447 -0.40675,-2.19383 -1.5039,-2.03125 -0.73474,0.10204 -1.26156,0.1582 -1.64258,0.1582 h -0.01 -0.01 c -0.58241,0.0195 -0.75781,-0.002 -0.75781,-0.002 l -0.004,-0.002 -0.006,-0.004 c -0.003,-0.002 -0.0723,-0.0513 -0.0723,-0.25391 0,-0.1262 0.0173,-0.14115 0.0293,-0.16601 0.10891,-0.0752 0.32535,-0.15628 0.8711,-0.13868 0.6642,0.0208 1.2149,-0.009 1.53906,-0.23047 0.45908,-0.3007 0.62109,-0.84711 0.62109,-1.41796 0,-0.8594 -0.3217,-1.62477 -1.18554,-1.66797 -0.81941,-0.04 -1.27126,-0.0778 -1.42188,-0.0957 -0.43333,-0.0872 -0.45312,-0.2104 -0.45312,-0.24804 0,-0.18099 0.0156,-0.23438 0.0156,-0.23438 l 0.0156,-0.01 0.0156,-0.008 c 0,0 0.24919,-0.0519 0.79102,-0.0332 h 0.0117 0.01 c 0.13958,0 0.38094,0.0344 0.76953,0.0957 0.39448,0.0623 0.75176,0.10938 0.9961,0.10938 0.61147,0 0.96722,-0.40727 1.17187,-0.9043 l 0.002,-0.006 0.004,-0.008 c 0.12773,-0.33209 0.20312,-0.71484 0.20312,-1.09766 0,-0.64326 -0.2333,-1.18515 -0.7832,-1.54492 -0.28788,-0.19753 -0.80529,-0.35848 -1.36914,-0.46289 -1.23389,-0.23401 -2.64824,-0.35937 -4.24023,-0.35937 z m 5.60937,0.82226 c 0.003,0.002 0.0109,0.002 0.0137,0.004 l -0.0176,-0.0117 c 0.003,0.002 10e-4,0.006 0.004,0.008 z m -0.7832,7.07031 c -0.004,0.003 -10e-4,0.0108 -0.006,0.0137 l 0.0273,-0.0176 c -0.004,0.003 -0.0169,8e-4 -0.0215,0.004 z"
           id="path138950" />
      </g>
      <g
         aria-label="lite"
         id="g138962"
         style="font-size:20.5436px;line-height:1.25;font-family:Pusab;-inkscape-font-specification:Pusab;stroke-width:0.513591">
        <path
           d="m -700.61914,263.72852 c -1.93967,0 -3.18948,0.0664 -3.77734,0.31836 -0.72918,0.32083 -1.16989,0.90932 -1.44141,1.77343 -0.20644,0.68811 -0.29337,1.45144 -0.27149,2.28321 0.0247,0.90012 0.0426,1.49174 0.0527,1.78125 0.003,0.0965 0.006,0.16459 0.008,0.20117 9e-5,0.002 0.005,0.0222 0.004,0.0215 0.002,3.10008 0.12595,5.01267 0.6875,5.57422 l 0.0156,0.0176 0.0176,0.0137 c 0.55711,0.47753 1.38033,0.73173 2.35547,0.82031 0.29282,0.0225 1.02964,0.043 2.22461,0.043 1.46837,0 2.75712,-0.12827 3.82812,-0.39062 0.56509,-0.1465 0.99357,-0.29221 1.23047,-0.42383 l 0.0176,-0.01 0.0176,-0.0117 c 0.52631,-0.34054 0.80664,-0.83402 0.80664,-1.46875 0,-1.0937 -0.38381,-2.01757 -1.38086,-2.01757 -0.18919,0 -0.48394,0.0206 -0.91211,0.041 -0.43505,0.0207 -0.69724,0.041 -0.8125,0.041 h -0.01 -0.0117 c -0.34522,0.0119 -0.46849,-0.008 -0.52149,-0.0137 -0.045,-0.39229 -0.0898,-0.78096 -0.0898,-0.88672 v -0.65625 c 0,-1.06857 -9.3e-4,-2.1114 0.0195,-3.11133 v -0.006 -1.31055 c -0.0238,-1.56811 -0.65265,-2.62304 -2.05664,-2.62304 z"
           id="path138954" />
        <path
           d="m -691.41602,263.70703 c -1.28756,0 -2.36617,0.2543 -2.98242,0.84375 l -0.006,0.004 -0.004,0.006 c -0.53475,0.53477 -0.78989,1.34734 -0.8125,2.34179 v 0.0195 0.0195 c 0.0407,0.93525 0.0605,1.91386 0.0605,2.93359 v 2.74023 0.008 c 0.0413,1.59147 0.13253,2.68749 0.56446,3.07617 0.65753,0.60493 1.66422,0.85522 2.85937,0.87695 h 0.006 0.55274 0.0156 c 0.8958,-0.0427 1.62532,-0.16233 2.09375,-0.50586 l 0.008,-0.006 0.008,-0.008 c 0.58373,-0.46083 0.82255,-1.22301 0.8457,-2.12891 l 0.082,-8.04687 c 0.0282,-1.38454 -0.8601,-2.12673 -2.29492,-2.15234 -0.55292,-0.0202 -0.88985,-0.0215 -0.9961,-0.0215 z"
           id="path138956" />
        <path
           d="m -680.1875,263.72852 c -2.07389,-0.0415 -4.0649,0.0202 -5.95898,0.16601 -1.3908,0.11989 -2.33594,0.72759 -2.33594,1.99414 0,1.29536 0.51819,2.24158 1.71875,2.13867 l -0.01,0.002 0.9043,-0.0605 h -0.0156 c 0.1403,-0.006 0.0545,-0.0444 0.0527,-0.008 -0.12335,3.16595 -0.16788,5.17958 -0.10352,6.05859 0.0428,0.70614 0.14258,1.32031 0.48438,1.66211 0.62849,0.6285 1.64479,0.87287 2.8789,0.89453 h 0.004 0.5332 0.0156 c 0.8758,-0.0427 1.60233,-0.16842 2.07031,-0.49023 0.66852,-0.44569 0.90431,-1.23664 0.9043,-2.16016 l 0.041,-5.5918 c 0,-0.28147 0.0255,-0.29094 0.24219,-0.2832 h 0.0117 0.01 c 0.11443,0 0.59904,0.041 0.86132,0.041 0.42176,0 0.80417,-0.0427 1.08985,-0.18555 l 0.006,-0.004 0.006,-0.002 c 0.72412,-0.3793 0.95703,-1.21753 0.95703,-2.19531 0,-0.68828 -0.32892,-1.26231 -0.98438,-1.50586 -0.77643,-0.30407 -1.92557,-0.44989 -3.38281,-0.4707 z"
           id="path138958" />
        <path
           d="m -670.76953,263.70703 c -2.68116,0 -4.4774,0.30451 -5.00977,1.30664 -0.31939,0.60975 -0.41797,2.34889 -0.41797,5.21094 v 1.4375 c 0,1.96839 0.14783,3.33566 0.62305,3.92969 0.60714,0.75892 2.38099,0.98437 5.0293,0.98437 1.62515,0 2.96192,-0.10565 4.01367,-0.29883 1.27503,-0.23612 2.1543,-0.87251 2.1543,-2.00586 0,-1.20396 -0.40641,-2.19583 -1.50391,-2.0332 -0.73525,0.10212 -1.26251,0.16016 -1.64258,0.16016 h -0.01 -0.01 c -0.58118,0.0193 -0.75781,-0.004 -0.75781,-0.004 l -0.004,-0.002 -0.006,-0.004 c -0.003,-0.002 -0.0723,-0.0513 -0.0723,-0.2539 0,-0.12857 0.0181,-0.14215 0.0293,-0.16602 0.10889,-0.0745 0.32641,-0.15625 0.8711,-0.13867 0.66419,0.0207 1.21493,-0.009 1.53906,-0.23047 0.45914,-0.3007 0.62109,-0.84425 0.62109,-1.41602 0,-0.86093 -0.32378,-1.62479 -1.1875,-1.66797 -0.81891,-0.04 -1.26708,-0.0794 -1.41992,-0.0976 -0.43331,-0.0872 -0.45312,-0.21038 -0.45312,-0.24805 0,-0.18099 0.0156,-0.23242 0.0156,-0.23242 l 0.0156,-0.01 0.0156,-0.008 c 0,0 0.25117,-0.0538 0.79102,-0.0351 h 0.0117 0.01 c 0.13958,0 0.37885,0.0343 0.76758,0.0957 0.39367,0.0621 0.75181,0.11133 0.99805,0.11133 0.61514,0 0.96759,-0.41012 1.17187,-0.90625 l 0.002,-0.006 0.004,-0.008 c 0.12771,-0.33208 0.20313,-0.71484 0.20313,-1.09766 0,-0.64326 -0.2333,-1.18514 -0.78321,-1.54492 -0.28789,-0.19755 -0.8053,-0.35848 -1.36914,-0.46289 -1.23389,-0.23402 -2.64824,-0.35938 -4.24023,-0.35938 z m 5.60937,0.82227 c 0.003,0.002 0.0109,0.002 0.0137,0.004 l -0.0176,-0.0117 c 0.003,0.002 10e-4,0.006 0.004,0.008 z m -0.7832,7.07031 c -0.004,0.003 -10e-4,0.0108 -0.006,0.0137 l 0.0273,-0.0176 c -0.004,0.003 -0.0169,8.1e-4 -0.0215,0.004 z"
           id="path138960" />
      </g>
    </g>
    <path
       id="path138886"
       style="font-size:20.5436px;line-height:1.25;font-family:Pusab;-inkscape-font-specification:Pusab;fill:#000000;fill-opacity:0.2;stroke:none;stroke-width:0.513591;stroke-opacity:0.5"
       d="m -454.36339,205.50688 3.8e-4,3.7e-4 c -1.89221,1.89221 -2.90643,3.34414 -2.5933,4.36699 0.0626,0.20028 0.22402,0.46981 0.47941,0.80901 -0.0591,-0.0652 -0.12,-0.13025 -0.18452,-0.19477 -0.46073,-0.46073 -1.05466,-0.6162 -1.64506,-0.34641 0,0 -7.5e-4,0 -7.5e-4,0 -0.74855,0.32668 -1.65733,1.02749 -2.70036,2.04117 -0.27974,0.26844 -0.55639,0.53749 -0.82765,0.80792 -1.17384,1.16961 -2.25787,2.34507 -3.26053,3.51486 -0.81363,0.96714 -0.96711,1.91589 -0.32302,2.72594 -0.87875,-0.77707 -1.88727,-0.72059 -2.81875,0.17832 -0.41535,0.38579 -0.65457,0.62681 -0.72387,0.6961 h -7.5e-4 c -0.90396,0.90396 -1.46498,1.81846 -1.48319,2.63788 v 0.006 0.006 c 1e-5,0.72223 0.37707,1.45275 1.05384,2.16102 l 0.0124,0.0124 0.011,0.011 c 0.69174,0.63404 1.40013,1.31169 2.12156,2.03313 l 1.93483,1.93483 0.005,0.005 c 0.22005,0.2089 0.42424,0.3973 0.6201,0.57406 -0.57463,-0.35658 -1.15885,-0.41168 -1.63118,0.0606 -0.13085,0.13085 -0.32267,0.35216 -0.61133,0.66979 -0.29254,0.32181 -0.46653,0.52427 -0.55139,0.60914 l -0.005,0.005 -0.007,0.007 c -0.31324,0.33557 -0.43558,0.3866 -0.47101,0.4045 -0.34726,-0.27442 -0.65765,-0.52245 -0.74141,-0.60621 l -0.46553,-0.46553 c -0.75525,-0.75525 -1.49119,-1.49268 -2.18478,-2.21546 l -0.003,-0.003 -0.92558,-0.92558 c -1.10082,-1.06785 -2.22991,-1.34159 -3.17101,-0.40049 l 3.7e-4,3.8e-4 c -1.37041,1.37041 -2.1955,2.29112 -2.42265,2.85894 -0.26782,0.68871 -0.1721,1.42061 0.22948,2.19026 0.33477,0.62172 0.8055,1.21471 1.40316,1.78173 0.65383,0.61888 1.08393,1.02587 1.29537,1.22374 0.0847,0.079 0.13237,0.12343 0.16481,0.15018 0.003,0.003 0.004,10e-4 0.007,0.004 1.08877,1.08727 1.98737,1.93937 2.7073,2.52167 h 3.67016 c 0.0683,-0.053 0.13633,-0.10606 0.20463,-0.16297 0.21963,-0.18839 0.75336,-0.69197 1.59792,-1.53654 1.03472,-1.03471 1.84928,-2.02935 2.41535,-2.96272 0.29516,-0.50175 0.48646,-0.89596 0.55797,-1.14629 l 0.005,-0.0164 0.003,-0.0172 c 0.1137,-0.53055 0.005,-1.0102 -0.34202,-1.41339 0.47541,0.36695 0.85883,0.57339 1.1514,0.55798 0.86013,-0.0358 1.72467,-0.55087 2.58379,-1.37942 l 0.38697,-0.38696 0.008,-0.008 c 0.59919,-0.65914 1.01327,-1.24261 1.09659,-1.78428 l 0.003,-0.009 0.001,-0.01 c 0.0822,-0.69824 -0.26763,-1.37631 -0.8799,-2.02071 l -5.2034,-5.31156 c 0.72896,0.50331 1.46414,0.67434 2.04116,-0.011 l 0.58648,-0.67272 c 0.13294,-0.14566 0.10828,-0.12033 0.18015,-0.0413 2.15119,2.32562 3.53977,3.77705 4.20219,4.34908 0.52604,0.46594 1.0113,0.80901 1.45285,0.80901 0.85266,0 1.71981,-0.52616 2.60646,-1.38233 l 0.37125,-0.37126 0.008,-0.008 c 0.58531,-0.64541 0.99409,-1.23375 1.09221,-1.76382 0.14825,-0.74129 -0.21913,-1.43449 -0.86017,-2.07552 l -3.92521,-3.98294 c -0.23608,-0.23608 -0.22889,-0.32944 -0.0278,-0.51668 l 0.006,-0.006 0.007,-0.007 c 0.0854,-0.0854 0.45872,-0.39807 0.64092,-0.58027 0.29539,-0.29539 0.5205,-0.58533 0.61608,-0.87259 0.15907,-0.50905 0.0123,-1.01603 -0.32339,-1.50804 0.56951,0.68254 1.42005,1.57791 2.54214,2.7 l 1.01803,1.01802 c 1.39001,1.39001 2.44331,2.2265 3.15968,2.30609 0.9139,0.10155 2.30033,-0.96075 4.17076,-2.83118 1.14623,-1.14623 2.01292,-2.15816 2.61595,-3.03252 0.0332,-0.0483 0.0635,-0.0966 0.0943,-0.1447 l 1e-5,-2.69086 c -0.82727,-0.81866 -1.72669,-1.17731 -2.32874,-0.36577 -0.44784,0.59229 -0.78639,1.01293 -1.05932,1.28587 l -0.006,0.006 -0.007,0.007 c -0.40198,0.4297 -0.58831,0.56346 -0.58831,0.56346 h -0.006 l -0.006,0.003 c -0.0469,0.0104 -0.15894,0.007 -0.32193,-0.15603 -0.10979,-0.10979 -0.12195,-0.16453 -0.13264,-0.20718 0.0251,-0.15848 0.14637,-0.40378 0.55798,-0.78965 0.48341,-0.45415 0.82836,-0.84722 0.89342,-1.19744 0,0 3.8e-4,-3.7e-4 3.8e-4,-3.7e-4 2e-5,-1.4e-4 4.3e-4,-3.2e-4 3.7e-4,-3.8e-4 0.10136,-0.49036 -0.14534,-0.95873 -0.53642,-1.34981 -0.58872,-0.58873 -1.29543,-0.86683 -1.88075,-0.33728 -0.6107,0.55385 -0.96113,0.85109 -1.08197,0.94604 -0.39583,0.26374 -0.55267,0.20374 -0.62522,0.13119 -0.18171,-0.18172 -0.17685,-0.27625 -0.17685,-0.27625 l 0.003,-0.0139 0.004,-0.0153 c 0.0125,-0.0541 0.1401,-0.23488 0.56492,-0.63142 l 0.007,-0.007 0.005,-0.005 c 0.10405,-0.10406 0.30607,-0.25479 0.62448,-0.48636 0.32172,-0.23404 0.60133,-0.4464 0.77064,-0.61571 0.39395,-0.39396 0.36171,-0.89106 0.16553,-1.36188 l -10e-4,-0.004 -0.003,-0.006 c -0.13978,-0.31453 -0.34978,-0.62899 -0.61169,-0.89087 -0.4344,-0.4344 -0.95221,-0.63725 -1.55554,-0.5112 0.003,-0.002 0.008,-0.006 0.0106,-0.006 l -0.0179,0.004 c 0.002,-5.6e-4 0.003,0.002 0.005,0.003 -0.32716,0.061 -0.78663,0.30074 -1.257,0.62411 -1.03203,0.70298 -2.11615,1.61116 -3.23824,2.73325 z m 8.82569,2.07734 c -7.1e-4,0.005 0.006,0.009 0.005,0.0142 l 0.005,-0.0274 c -7.4e-4,0.003 -0.01,0.009 -0.0109,0.0132 z m -12.76953,2.55786 c 10e-4,-3.8e-4 0.003,-0.004 0.004,-0.004 l -0.01,0.005 c 0.002,-9.4e-4 0.003,3.7e-4 0.005,-3.6e-4 z" />
    <g
       id="g138773"
       transform="rotate(-45,-635.67016,-26.187777)">
      <g
         aria-label="lite"
         id="text130146"
         style="font-size:20.5436px;line-height:1.25;font-family:Pusab;-inkscape-font-specification:Pusab;fill:#e2fd5f;stroke-width:0.513591">
        <path
           d="m -696.58051,272.58141 c -0.16435,0 -0.45196,0.0205 -0.88337,0.0411 -0.43142,0.0205 -0.69849,0.0411 -0.84229,0.0411 -0.59577,0.0205 -0.96555,-0.0616 -1.10936,-0.24652 -0.0822,-0.65739 -0.12326,-1.06827 -0.12326,-1.25316 v -0.65739 c 0,-1.06827 0,-2.116 0.0205,-3.12263 v -1.29425 c -0.0205,-1.35588 -0.49305,-2.03381 -1.4586,-2.03381 -1.9311,0 -3.10208,0.0822 -3.5335,0.26706 -0.51359,0.22598 -0.88337,0.67794 -1.10935,1.39697 -0.1849,0.6163 -0.26707,1.31479 -0.24653,2.09544 0.0411,1.49969 0.0616,2.13654 0.0616,1.95165 0,3.14317 0.16435,4.86883 0.51359,5.21807 0.43142,0.36979 1.10936,0.59576 2.01328,0.67794 0.26706,0.0205 0.98609,0.0411 2.17762,0.0411 1.43805,0 2.67067,-0.12327 3.6773,-0.36979 0.55468,-0.1438 0.90392,-0.26707 1.08881,-0.36978 0.34924,-0.22598 0.53414,-0.55468 0.53414,-0.96555 0,-0.94501 -0.26707,-1.41751 -0.78066,-1.41751 z"
           id="path141199" />
        <path
           d="m -689.0821,265.59659 c 0.0205,-1.00664 -0.55468,-1.52023 -1.70512,-1.54077 -0.55468,-0.0205 -0.88338,-0.0205 -0.9861,-0.0205 -1.23261,0 -2.09544,0.22598 -2.56795,0.67794 -0.39032,0.39033 -0.6163,1.02718 -0.63685,1.9311 0.0411,0.945 0.0616,1.9311 0.0616,2.95828 v 2.7323 c 0.0411,1.58185 0.16435,2.46523 0.36979,2.65012 0.51359,0.4725 1.33533,0.69848 2.46523,0.71903 h 0.53413 c 0.86283,-0.0411 1.4586,-0.16435 1.76675,-0.39033 0.39033,-0.30816 0.59577,-0.86283 0.61631,-1.66403 z"
           id="path141201" />
        <path
           d="m -685.58971,267.71258 c -0.12326,3.16371 -0.16435,5.15644 -0.10272,5.99873 0.0411,0.67794 0.14381,1.10935 0.30816,1.2737 0.4725,0.4725 1.29424,0.69848 2.46523,0.71903 h 0.51359 c 0.84228,-0.0411 1.43805,-0.16435 1.76675,-0.39033 0.43141,-0.28761 0.63685,-0.84229 0.63685,-1.66403 l 0.0411,-5.58786 c 0,-0.59577 0.28761,-0.90392 0.86283,-0.88338 0.16435,0 0.63685,0.0411 0.86283,0.0411 0.39033,0 0.65739,-0.0411 0.82174,-0.12326 0.43142,-0.22598 0.63685,-0.78066 0.63685,-1.66403 0,-0.47251 -0.20543,-0.8012 -0.59576,-0.94501 -0.67794,-0.26707 -1.74621,-0.41087 -3.18426,-0.43141 -2.05436,-0.0411 -4.02654,0.0205 -5.89601,0.16434 -1.19153,0.10272 -1.7873,0.55468 -1.7873,1.39697 0,1.08881 0.34925,1.6024 1.06827,1.54077 l 0.90392,-0.0616 c 0.4725,-0.0206 0.69848,0.18489 0.67794,0.61631 z"
           id="path141203" />
        <path
           d="m -666.15547,272.56087 c -0.73957,0.10271 -1.31479,0.16434 -1.72567,0.16434 -0.6163,0.0206 -0.98609,-0.0205 -1.10935,-0.10271 -0.22598,-0.14381 -0.34924,-0.39033 -0.34924,-0.76012 0,-0.26706 0.0616,-0.4725 0.18489,-0.6163 0.24652,-0.20544 0.69848,-0.30816 1.33534,-0.28762 0.65739,0.0206 1.04772,-0.0205 1.19152,-0.12326 0.22598,-0.1438 0.34925,-0.45196 0.34925,-0.92446 0,-0.69848 -0.20544,-1.04772 -0.61631,-1.06827 -0.84229,-0.0411 -1.33534,-0.0822 -1.49969,-0.10271 -0.63685,-0.12327 -0.945,-0.41088 -0.945,-0.84229 0,-0.39033 0.10272,-0.63685 0.3287,-0.76011 0.16435,-0.10272 0.53413,-0.14381 1.12989,-0.12327 0.1849,0 0.47251,0.0411 0.86284,0.10272 0.39032,0.0616 0.69848,0.10272 0.90391,0.10272 0.26707,0 0.47251,-0.18489 0.61631,-0.53413 0.10272,-0.26707 0.16435,-0.57522 0.16435,-0.88338 0,-0.4725 -0.16435,-0.82174 -0.51359,-1.04772 -0.20544,-0.14381 -0.59576,-0.26707 -1.15044,-0.36979 -1.19153,-0.22598 -2.56795,-0.34924 -4.12926,-0.34924 -2.65013,0 -4.12927,0.3287 -4.47851,0.98609 -0.22598,0.43142 -0.34924,2.07491 -0.34924,4.93047 v 1.43805 c 0,1.95164 0.16435,3.14317 0.49305,3.55404 0.41087,0.51359 1.93109,0.76012 4.56068,0.76012 1.6024,0 2.89664,-0.10272 3.90328,-0.28761 1.10935,-0.20544 1.66403,-0.67794 1.66403,-1.41751 0,-1.04773 -0.26707,-1.52023 -0.82174,-1.43805 z"
           id="path141205" />
      </g>
      <g
         aria-label="lite"
         id="text121188"
         style="font-size:20.5436px;line-height:1.25;font-family:Pusab;-inkscape-font-specification:Pusab;fill:url(#linearGradient121756);stroke-width:0.513591">
        <path
           d="m -696.22376,272.85332 c -0.16435,0 -0.45196,0.0205 -0.88337,0.0411 -0.43142,0.0205 -0.69849,0.0411 -0.84229,0.0411 -0.59577,0.0205 -0.96555,-0.0616 -1.10936,-0.24653 -0.0822,-0.65739 -0.12326,-1.06827 -0.12326,-1.25316 v -0.65739 c 0,-1.06827 0,-2.11599 0.0206,-3.12263 v -1.29425 c -0.0206,-1.35587 -0.49305,-2.03381 -1.4586,-2.03381 -1.9311,0 -3.10208,0.0822 -3.5335,0.26706 -0.51359,0.22598 -0.88337,0.67794 -1.10935,1.39697 -0.1849,0.61631 -0.26707,1.31479 -0.24653,2.09545 0.0411,1.49968 0.0616,2.13653 0.0616,1.95164 0,3.14317 0.16435,4.86883 0.51359,5.21807 0.43142,0.36979 1.10936,0.59577 2.01328,0.67794 0.26706,0.0205 0.98609,0.0411 2.17762,0.0411 1.43805,0 2.67067,-0.12326 3.6773,-0.36979 0.55468,-0.1438 0.90392,-0.26706 1.08881,-0.36978 0.34925,-0.22598 0.53414,-0.55468 0.53414,-0.96555 0,-0.94501 -0.26707,-1.41751 -0.78066,-1.41751 z"
           id="path141208"
           style="fill:url(#linearGradient2365)" />
        <path
           d="m -688.72535,265.8685 c 0.0205,-1.00664 -0.55468,-1.52023 -1.70512,-1.54077 -0.55468,-0.0205 -0.88338,-0.0205 -0.9861,-0.0205 -1.23261,0 -2.09544,0.22598 -2.56795,0.67794 -0.39032,0.39033 -0.6163,1.02718 -0.63685,1.9311 0.0411,0.94501 0.0616,1.9311 0.0616,2.95828 v 2.7323 c 0.0411,1.58185 0.16435,2.46523 0.36979,2.65012 0.51359,0.4725 1.33533,0.69848 2.46523,0.71903 h 0.53413 c 0.86284,-0.0411 1.4586,-0.16435 1.76675,-0.39033 0.39033,-0.30815 0.59577,-0.86283 0.61631,-1.66403 z"
           id="path141210"
           style="fill:url(#linearGradient2367)" />
        <path
           d="m -685.23296,267.98449 c -0.12326,3.16371 -0.16435,5.15644 -0.10272,5.99873 0.0411,0.67794 0.14381,1.10935 0.30816,1.2737 0.4725,0.4725 1.29424,0.69848 2.46523,0.71903 h 0.51359 c 0.84229,-0.0411 1.43805,-0.16435 1.76675,-0.39033 0.43141,-0.28761 0.63685,-0.84229 0.63685,-1.66403 l 0.0411,-5.58786 c 0,-0.59577 0.28761,-0.90392 0.86283,-0.88338 0.16435,0 0.63685,0.0411 0.86283,0.0411 0.39033,0 0.65739,-0.0411 0.82174,-0.12326 0.43142,-0.22598 0.63685,-0.78066 0.63685,-1.66403 0,-0.4725 -0.20543,-0.8012 -0.59576,-0.94501 -0.67794,-0.26706 -1.74621,-0.41087 -3.18426,-0.43141 -2.05436,-0.0411 -4.02654,0.0205 -5.89601,0.16435 -1.19153,0.10271 -1.78729,0.55467 -1.78729,1.39696 0,1.08881 0.34924,1.6024 1.06826,1.54077 l 0.90392,-0.0616 c 0.4725,-0.0205 0.69848,0.18489 0.67794,0.61631 z"
           id="path141212"
           style="fill:url(#linearGradient2369)" />
        <path
           d="m -665.79872,272.83278 c -0.73957,0.10272 -1.31479,0.16435 -1.72567,0.16435 -0.6163,0.0205 -0.98609,-0.0206 -1.10935,-0.10272 -0.22598,-0.14381 -0.34924,-0.39033 -0.34924,-0.76012 0,-0.26706 0.0616,-0.4725 0.18489,-0.6163 0.24652,-0.20544 0.69848,-0.30816 1.33534,-0.28761 0.65739,0.0205 1.04772,-0.0206 1.19152,-0.12327 0.22598,-0.1438 0.34925,-0.45195 0.34925,-0.92446 0,-0.69848 -0.20544,-1.04772 -0.61631,-1.06826 -0.84229,-0.0411 -1.33534,-0.0822 -1.49969,-0.10272 -0.63685,-0.12326 -0.945,-0.41087 -0.945,-0.84229 0,-0.39033 0.10272,-0.63685 0.3287,-0.76011 0.16435,-0.10272 0.53413,-0.14381 1.12989,-0.12326 0.1849,0 0.47251,0.0411 0.86284,0.10271 0.39032,0.0616 0.69848,0.10272 0.90391,0.10272 0.26707,0 0.47251,-0.18489 0.61631,-0.53413 0.10272,-0.26707 0.16435,-0.57522 0.16435,-0.88338 0,-0.4725 -0.16435,-0.82174 -0.51359,-1.04772 -0.20543,-0.14381 -0.59576,-0.26707 -1.15044,-0.36979 -1.19153,-0.22598 -2.56795,-0.34924 -4.12926,-0.34924 -2.65013,0 -4.12927,0.3287 -4.47851,0.9861 -0.22598,0.43141 -0.34924,2.0749 -0.34924,4.93046 v 1.43805 c 0,1.95164 0.16435,3.14317 0.49305,3.55404 0.41087,0.51359 1.93109,0.76012 4.56068,0.76012 1.6024,0 2.89664,-0.10272 3.90328,-0.28761 1.10935,-0.20544 1.66403,-0.67794 1.66403,-1.41751 0,-1.04772 -0.26707,-1.52023 -0.82174,-1.43805 z"
           id="path141214"
           style="fill:url(#linearGradient2371)" />
      </g>
    </g>
  </g>
</svg>
